<svg width="150" height="40" viewBox="0 0 150 40" fill="none" xmlns="http://www.w3.org/2000/svg">
<path d="M11 29.56C13.4 29.56 16.08 28.28 16.08 25.36C16.08 22.04 13.6 20.96 8.68 19.56C3.84 18.2 0.16 16.28 0.16 10.24C0.16 5.76 3.48 1.56 9.64 1.56C13.32 1.56 15.4 2.8 16.76 2.8C17.44 2.8 17.64 2.52 17.92 2H18.36L18.64 10.08H18C15.96 6.4 13.24 2.4 9.12 2.4C6.24 2.4 4.24 4.08 4.24 6.44C4.24 9.4 6.96 10.4 11 11.48C15.44 12.68 20.36 14.2 20.36 20.84C20.36 26.6 16.44 30.4 10.56 30.4C6.68 30.4 3.32 29.2 2.2 29.2C1.56 29.2 1.32 29.64 1 30.4H0.44L0.0400001 20.88H0.72C2.72 24.88 6.6 29.56 11 29.56ZM37.5938 2.36C33.5538 2.36 31.3938 6.04 31.3938 14.32V17.48C31.3938 24.84 33.5138 29.6 37.8738 29.6C41.1138 29.6 43.7138 26.24 45.9538 21.04H46.6738L46.3938 29.96H45.9538C45.6738 29.44 45.5138 29.16 44.8738 29.16C43.5138 29.16 41.3138 30.4 36.9138 30.4C28.4338 30.4 23.2338 25.92 23.2338 16.36C23.2338 6.68 28.8338 1.56 37.0338 1.56C41.1938 1.56 43.1138 2.8 44.5138 2.8C45.1538 2.8 45.3138 2.52 45.5938 2H46.0338L46.3538 10.68H45.6338C43.4338 5.76 41.0338 2.36 37.5938 2.36ZM69.3984 29.56C71.7984 29.56 74.4784 28.28 74.4784 25.36C74.4784 22.04 71.9984 20.96 67.0784 19.56C62.2384 18.2 58.5584 16.28 58.5584 10.24C58.5584 5.76 61.8784 1.56 68.0384 1.56C71.7184 1.56 73.7984 2.8 75.1584 2.8C75.8384 2.8 76.0384 2.52 76.3184 2H76.7584L77.0384 10.08H76.3984C74.3584 6.4 71.6384 2.4 67.5184 2.4C64.6384 2.4 62.6384 4.08 62.6384 6.44C62.6384 9.4 65.3584 10.4 69.3984 11.48C73.8384 12.68 78.7584 14.2 78.7584 20.84C78.7584 26.6 74.8384 30.4 68.9584 30.4C65.0784 30.4 61.7184 29.2 60.5984 29.2C59.9584 29.2 59.7184 29.64 59.3984 30.4H58.8384L58.4384 20.88H59.1184C61.1184 24.88 64.9984 29.56 69.3984 29.56ZM80.7828 -2.38419e-06H90.4228V14.64C91.1028 12.64 92.4228 10.56 96.3828 10.56C100.103 10.56 102.583 12.4 102.583 17.24V29.28H104.823V30H93.5028V29.28H95.1428V16.28C95.1428 12.88 94.6628 12.48 93.6628 12.48C91.9828 12.48 90.4228 15 90.4228 18.24V29.28H92.1428V30H80.7828V29.28H82.9828V0.719998H80.7828V-2.38419e-06ZM118.351 22.12V18.72C118.351 14.4 118.231 11.28 115.991 11.28C113.551 11.28 113.431 14.4 113.431 18.92V22.04C113.431 26.68 113.511 29.68 115.951 29.68C118.231 29.68 118.351 27.32 118.351 22.12ZM105.751 20.56C105.751 14 109.671 10.56 116.111 10.56C122.831 10.56 126.031 13.72 126.031 20.2C126.031 26.76 122.991 30.4 115.871 30.4C109.151 30.4 105.751 26.8 105.751 20.56ZM139.91 12.28C138.27 12.28 136.79 14.32 136.79 17.8V25.12C136.79 27.28 137.63 29.24 139.39 29.24C141.35 29.24 141.75 26.88 141.75 21.32V19.24C141.75 13.6 141.27 12.28 139.91 12.28ZM136.71 10.96V14.12C137.59 12.12 139.11 10.56 142.23 10.56C146.71 10.56 149.47 13.72 149.47 20.52C149.47 27.36 146.67 30.4 141.23 30.4C138.51 30.4 137.51 29.68 136.79 28.44V38.8H141.95V39.52H127.15V38.8H129.35V11.68H127.23V10.96H136.71Z" fill="#EDE1D2"/>
</svg>
