<svg width="136" height="36" viewBox="0 0 136 36" fill="none" xmlns="http://www.w3.org/2000/svg">
<path d="M10.7 26.604C12.86 26.604 15.272 25.452 15.272 22.824C15.272 19.836 13.04 18.864 8.612 17.604C4.256 16.38 0.944 14.652 0.944 9.216C0.944 5.184 3.932 1.404 9.476 1.404C12.788 1.404 14.66 2.52 15.884 2.52C16.496 2.52 16.676 2.268 16.928 1.8H17.324L17.576 9.072H17C15.164 5.76 12.716 2.16 9.008 2.16C6.416 2.16 4.616 3.672 4.616 5.796C4.616 8.46 7.064 9.36 10.7 10.332C14.696 11.412 19.124 12.78 19.124 18.756C19.124 23.94 15.596 27.36 10.304 27.36C6.812 27.36 3.788 26.28 2.78 26.28C2.204 26.28 1.988 26.676 1.7 27.36H1.196L0.836 18.792H1.448C3.248 22.392 6.74 26.604 10.7 26.604ZM34.6344 2.124C30.9984 2.124 29.0544 5.436 29.0544 12.888V15.732C29.0544 22.356 30.9624 26.64 34.8864 26.64C37.8024 26.64 40.1424 23.616 42.1584 18.936H42.8064L42.5544 26.964H42.1584C41.9064 26.496 41.7624 26.244 41.1864 26.244C39.9624 26.244 37.9824 27.36 34.0224 27.36C26.3904 27.36 21.7104 23.328 21.7104 14.724C21.7104 6.012 26.7504 1.404 34.1304 1.404C37.8744 1.404 39.6024 2.52 40.8624 2.52C41.4384 2.52 41.5824 2.268 41.8344 1.8H42.2304L42.5184 9.612H41.8704C39.8904 5.184 37.7304 2.124 34.6344 2.124ZM63.2586 26.604C65.4186 26.604 67.8306 25.452 67.8306 22.824C67.8306 19.836 65.5986 18.864 61.1706 17.604C56.8146 16.38 53.5026 14.652 53.5026 9.216C53.5026 5.184 56.4906 1.404 62.0346 1.404C65.3466 1.404 67.2186 2.52 68.4426 2.52C69.0546 2.52 69.2346 2.268 69.4866 1.8H69.8826L70.1346 9.072H69.5586C67.7226 5.76 65.2746 2.16 61.5666 2.16C58.9746 2.16 57.1746 3.672 57.1746 5.796C57.1746 8.46 59.6226 9.36 63.2586 10.332C67.2546 11.412 71.6826 12.78 71.6826 18.756C71.6826 23.94 68.1546 27.36 62.8626 27.36C59.3706 27.36 56.3466 26.28 55.3386 26.28C54.7626 26.28 54.5466 26.676 54.2586 27.36H53.7546L53.3946 18.792H54.0066C55.8066 22.392 59.2986 26.604 63.2586 26.604ZM73.5045 -2.14577e-06H82.1805V13.176C82.7925 11.376 83.9805 9.504 87.5445 9.504C90.8925 9.504 93.1245 11.16 93.1245 15.516V26.352H95.1405V27H84.9525V26.352H86.4285V14.652C86.4285 11.592 85.9965 11.232 85.0965 11.232C83.5845 11.232 82.1805 13.5 82.1805 16.416V26.352H83.7285V27H73.5045V26.352H75.4845V0.647998H73.5045V-2.14577e-06ZM107.316 19.908V16.848C107.316 12.96 107.208 10.152 105.192 10.152C102.996 10.152 102.888 12.96 102.888 17.028V19.836C102.888 24.012 102.96 26.712 105.156 26.712C107.208 26.712 107.316 24.588 107.316 19.908ZM95.9761 18.504C95.9761 12.6 99.5041 9.504 105.3 9.504C111.348 9.504 114.228 12.348 114.228 18.18C114.228 24.084 111.492 27.36 105.084 27.36C99.0361 27.36 95.9761 24.12 95.9761 18.504ZM126.719 11.052C125.243 11.052 123.911 12.888 123.911 16.02V22.608C123.911 24.552 124.667 26.316 126.251 26.316C128.015 26.316 128.375 24.192 128.375 19.188V17.316C128.375 12.24 127.943 11.052 126.719 11.052ZM123.839 9.864V12.708C124.631 10.908 125.999 9.504 128.807 9.504C132.839 9.504 135.323 12.348 135.323 18.468C135.323 24.624 132.803 27.36 127.907 27.36C125.459 27.36 124.559 26.712 123.911 25.596V34.92H128.555V35.568H115.235V34.92H117.215V10.512H115.307V9.864H123.839Z" fill="#434343"/>
</svg>
